<?xml version="1.0" encoding="utf-8"?>
<!-- Generator: Adobe Illustrator 25.0.0, SVG Export Plug-In . SVG Version: 6.00 Build 0)  -->
<svg version="1.1" id="图层_1" xmlns="http://www.w3.org/2000/svg" xmlns:xlink="http://www.w3.org/1999/xlink" x="0px" y="0px"
	 viewBox="0 0 31.9 32" style="enable-background:new 0 0 31.9 32;" xml:space="preserve">
<style type="text/css">
	.st0{fill-rule:evenodd;clip-rule:evenodd;fill:#E50012;}
	.st1{fill-rule:evenodd;clip-rule:evenodd;fill:#004097;}
	.st2{fill-rule:evenodd;clip-rule:evenodd;fill:#231815;stroke:#231815;stroke-width:5.285923e-04;stroke-miterlimit:22.9256;}
	.st3{fill-rule:evenodd;clip-rule:evenodd;fill:#231815;}
</style>
<g>
	<path class="st0" d="M1,16.1L30.6,16c0.1,0-24.7,2.2-30.6,5.2L1,16.1z"/>
	<polygon class="st1" points="19.3,11 23,11 22.9,12 19.2,12 	"/>
	<polygon class="st1" points="19.9,15.2 21.1,15.2 21.7,11.8 20.5,11.8 	"/>
	<path class="st1" d="M5.9,11c-0.8-0.1-1.7-0.1-2.5,0c-2,0.3-3.1,3.3-1,4.1c0.8,0.3,2.5,0.1,2.5,0l0.6-2.4H3.9l-0.2,0.8h0.6
		l-0.2,0.7c0,0-0.8,0.2-1.3-0.3c-0.4-0.5-0.2-1.2,0.2-1.6c0.5-0.6,2.1-0.5,2.8-0.4L5.9,11z"/>
	<polygon class="st1" points="9.9,11 6.7,11 5.9,15.2 9.1,15.2 9.4,14.3 7.2,14.3 7.4,13.5 9.3,13.5 9.5,12.6 7.5,12.6 7.7,11.9 
		9.7,11.9 	"/>
	<polygon class="st1" points="9.8,15.2 10.6,11.1 12.4,11.1 12.5,13.7 13.7,11.1 15.5,11.1 14.9,15.1 13.7,15.1 14.2,12.2 
		12.7,15.1 11.8,15.1 11.5,11.9 10.8,15.2 	"/>
	<path class="st1" d="M18.9,11.2l-0.2,0.9c-0.4-0.2-0.9-0.1-1.1-0.1c-0.3,0-0.4,0.3-0.2,0.5c0.2,0.2,0.9,0.9,0.9,0.9
		c0.7,0.9-0.1,1.9-1.3,1.8c-0.5-0.1-1.1-0.1-1.6-0.2l0.2-0.8c0.5,0.1,1,0.2,1.3,0.2c0.4-0.1,0.4-0.2,0.2-0.5
		c-0.2-0.3-0.9-0.8-1.1-1.2c0,0-0.3-0.6,0.1-1C16.8,10.9,18.1,11.1,18.9,11.2z"/>
	<path class="st1" d="M21.6,15.1l2.4-4.1h1.7l0.7,4h-1.3L25,13.8h-1.4l-0.8,1.3L21.6,15.1L21.6,15.1z M25,12.9l-0.1-1.3l-0.8,1.3H25
		z"/>
	<path class="st1" d="M26.8,15.2l0.7-4H30c0,0,1,0.1,0.9,1.1c-0.1,1-0.9,1.1-0.9,1.1l0.4,2h-1.3l-0.4-2.4l0.5-0.1
		c0.5-0.1,0.6-0.8,0.1-0.9c-0.3-0.1-0.5,0-0.7,0L28,15.2H26.8z"/>
	<g>
		<path class="st2" d="M31.5,10.8c0.2,0,0.4,0.2,0.4,0.4c0,0.2-0.2,0.4-0.4,0.4c-0.2,0-0.4-0.2-0.4-0.4
			C31.1,10.9,31.3,10.8,31.5,10.8L31.5,10.8z M31.5,10.7c-0.2,0-0.4,0.2-0.4,0.4c0,0.2,0.2,0.4,0.4,0.4c0.2,0,0.4-0.2,0.4-0.4
			C31.9,10.9,31.7,10.7,31.5,10.7z"/>
		<path class="st3" d="M31.3,11.4v-0.5h0.2c0,0,0.1,0,0.1,0c0,0,0,0,0.1,0c0,0,0,0,0,0.1c0,0,0,0.1,0,0.1c0,0-0.1,0-0.1,0
			c0,0,0,0,0,0c0,0,0,0,0.1,0.1l0.1,0.1h-0.1l-0.1-0.1c0,0,0-0.1,0-0.1c0,0,0,0,0,0c0,0,0,0,0,0c0,0,0,0,0,0h-0.1L31.3,11.4
			L31.3,11.4L31.3,11.4z M31.4,11.1h0.1c0,0,0.1,0,0.1,0c0,0,0,0,0,0c0,0,0,0,0,0c0,0,0,0,0-0.1c0,0,0,0-0.1,0h-0.2V11.1z"/>
	</g>
</g>
</svg>
